<svg xmlns="http://www.w3.org/2000/svg" viewBox="0 0 64 64">
  <rect width="64" height="64" rx="8" fill="#0c0c0d"/>
  <rect x="6" y="6" width="52" height="52" rx="4" fill="none" stroke="#26282b" stroke-width="1.5"/>
  <path d="M15 17 h11 c8.2 0 13.4 5.6 13.4 15 S34.2 47 26 47 H15 Z M22.4 23.4 v17.2 h3.2 c4.3 0 6.6-3.1 6.6-8.6 s-2.3-8.6-6.6-8.6 Z" fill="#f2f1ee"/>
  <path d="M42 40.8 c1.9 1.4 4 2.1 6 2.1 2.4 0 3.8-1 3.8-2.6 0-1.7-1.4-2.4-4.1-3.4 -3.6-1.3-5.9-3-5.9-6.4 0-3.8 3-6.3 7.4-6.3 2.2 0 4.2.5 5.8 1.5 v4.6 c-1.7-1.3-3.6-2-5.5-2 -2.2 0-3.5.9-3.5 2.4 0 1.6 1.4 2.3 4.2 3.3 3.7 1.4 5.9 3.1 5.9 6.5 0 4-3.1 6.5-7.8 6.5 -2.4 0-4.6-.6-6.3-1.7 Z" fill="#b5714c"/>
</svg>
